<?xml version="1.0" encoding="utf-8"?>
<!-- Generator: Adobe Illustrator 19.1.0, SVG Export Plug-In . SVG Version: 6.00 Build 0)  -->
<svg version="1.1" id="Ebene_1" xmlns="http://www.w3.org/2000/svg" xmlns:xlink="http://www.w3.org/1999/xlink" x="0px" y="0px"
	 viewBox="0 0 399 51" style="enable-background:new 0 0 399 51;" xml:space="preserve">
<style type="text/css">
	.st0{fill:#212121;}
</style>
<g id="XMLID_1128_">
	<polygon id="XMLID_1231_" class="st0" points="115.4,21.6 115.4,13.1 107.2,13.1 107.2,21.6 102.3,21.6 102.3,0.3 107.2,0.3 
		107.2,8.7 115.4,8.7 115.4,0.3 120.3,0.3 120.3,21.6 	"/>
	<polygon id="XMLID_1230_" class="st0" points="115.4,21.6 115.4,13.1 107.2,13.1 107.2,21.6 102.3,21.6 102.3,0.3 107.2,0.3 
		107.2,8.7 115.4,8.7 115.4,0.3 120.3,0.3 120.3,21.6 	"/>
	<g id="XMLID_1221_">
		<path id="XMLID_1225_" class="st0" d="M137,4.4c-3.4,0-5.6,2.8-5.6,6.6c0,3.8,2.3,6.6,5.6,6.6c3.4,0,5.6-2.8,5.6-6.6
			C142.7,7.2,140.4,4.4,137,4.4 M137,21.9c-6.6,0-10.8-4.7-10.8-11c0-6.3,4.4-11,11-11c6.6,0,10.8,4.7,10.8,11
			C147.9,17.2,143.5,21.9,137,21.9"/>
		<path id="XMLID_1222_" class="st0" d="M137,4.4c-3.4,0-5.6,2.8-5.6,6.6c0,3.8,2.3,6.6,5.6,6.6c3.4,0,5.6-2.8,5.6-6.6
			C142.7,7.2,140.4,4.4,137,4.4z M137,21.9c-6.6,0-10.8-4.7-10.8-11c0-6.3,4.4-11,11-11c6.6,0,10.8,4.7,10.8,11
			C147.9,17.2,143.5,21.9,137,21.9z"/>
	</g>
	<polygon id="XMLID_1220_" class="st0" points="163,4.9 163,21.6 158.1,21.6 158.1,4.9 151.7,4.9 151.7,0.3 169.4,0.3 169.4,4.9 	
		"/>
	<polygon id="XMLID_1219_" class="st0" points="163,4.9 163,21.6 158.1,21.6 158.1,4.9 151.7,4.9 151.7,0.3 169.4,0.3 169.4,4.9 	
		"/>
	<polygon id="XMLID_1218_" class="st0" points="174.2,21.6 174.2,0.3 187.6,0.3 187.6,4.9 179.1,4.9 179.1,8.7 186.9,8.7 186.9,13 
		179.1,13 179.1,17.1 187.6,17.1 187.6,21.6 	"/>
	<polygon id="XMLID_1217_" class="st0" points="174.2,21.6 174.2,0.3 187.6,0.3 187.6,4.9 179.1,4.9 179.1,8.7 186.9,8.7 186.9,13 
		179.1,13 179.1,17.1 187.6,17.1 187.6,21.6 	"/>
	<polygon id="XMLID_1216_" class="st0" points="194,21.6 194,0.3 199,0.3 199,17.1 207.5,17.1 207.5,21.6 	"/>
	<polygon id="XMLID_1215_" class="st0" points="194,21.6 194,0.3 199,0.3 199,17.1 207.5,17.1 207.5,21.6 	"/>
	<polygon id="XMLID_1214_" class="st0" points="212.3,21.6 212.3,0.3 217.2,0.3 217.2,17.1 225.7,17.1 225.7,21.6 	"/>
	<polygon id="XMLID_1213_" class="st0" points="212.3,21.6 212.3,0.3 217.2,0.3 217.2,17.1 225.7,17.1 225.7,21.6 	"/>
	<polygon id="XMLID_1212_" class="st0" points="230.5,21.6 230.5,0.3 244,0.3 244,4.9 235.4,4.9 235.4,8.7 243.2,8.7 243.2,13 
		235.4,13 235.4,17.1 244,17.1 244,21.6 	"/>
	<polygon id="XMLID_1211_" class="st0" points="230.5,21.6 230.5,0.3 244,0.3 244,4.9 235.4,4.9 235.4,8.7 243.2,8.7 243.2,13 
		235.4,13 235.4,17.1 244,17.1 244,21.6 	"/>
	<g id="XMLID_1204_">
		<path id="XMLID_1208_" class="st0" d="M257.1,4.6c-0.8,0-1.2,0-1.9,0.1v5.9c0.6,0.1,1,0.1,1.6,0.1c2.3,0,3.9-1.1,3.9-3.3
			C260.6,5.7,259.2,4.6,257.1,4.6 M261.5,21.6l-3.6-6.9c-0.3,0-0.6,0-0.8,0c-0.7,0-1.1,0-1.8-0.1v7h-4.9v-21
			c1.8-0.2,3.8-0.3,6.3-0.3c6.6,0,9.2,3.2,9.2,7c0,2.5-1.4,4.8-3.7,6.1l5,8.2H261.5z"/>
		<path id="XMLID_1205_" class="st0" d="M257.1,4.6c-0.8,0-1.2,0-1.9,0.1v5.9c0.6,0.1,1,0.1,1.6,0.1c2.3,0,3.9-1.1,3.9-3.3
			C260.6,5.7,259.2,4.6,257.1,4.6z M261.5,21.6l-3.6-6.9c-0.3,0-0.6,0-0.8,0c-0.7,0-1.1,0-1.8-0.1v7h-4.9v-21
			c1.8-0.2,3.8-0.3,6.3-0.3c6.6,0,9.2,3.2,9.2,7c0,2.5-1.4,4.8-3.7,6.1l5,8.2H261.5z"/>
	</g>
	<rect id="XMLID_1203_" x="271.8" y="0.3" class="st0" width="4.9" height="21.2"/>
	<rect id="XMLID_1202_" x="271.8" y="0.3" class="st0" width="4.9" height="21.2"/>
	<polygon id="XMLID_1201_" class="st0" points="283.6,21.6 283.6,0.3 297,0.3 297,4.9 288.5,4.9 288.5,8.7 296.3,8.7 296.3,13 
		288.5,13 288.5,17.1 297,17.1 297,21.6 	"/>
	<polygon id="XMLID_1200_" class="st0" points="283.6,21.6 283.6,0.3 297,0.3 297,4.9 288.5,4.9 288.5,8.7 296.3,8.7 296.3,13 
		288.5,13 288.5,17.1 297,17.1 297,21.6 	"/>
	<g id="XMLID_1197_">
		<path id="XMLID_1199_" class="st0" d="M19.2,38.6v10.1c-2.3,1.4-4.8,2.1-8.1,2.1C4.9,50.9,0,46.4,0,39.9c0-6.5,5-11,11.4-11
			c2.8,0,5,0.7,7.1,1.8l-2.1,4c-1.5-0.8-3.1-1.2-4.8-1.2c-4.2,0-6.5,2.6-6.5,6.4c0,4.1,2.7,6.6,6.2,6.6c1.6,0,2.3-0.2,3.1-0.6v-3.1
			h-4.3v-4.2H19.2z"/>
		<path id="XMLID_1198_" class="st0" d="M19.2,38.6v10.1c-2.3,1.4-4.8,2.1-8.1,2.1C4.9,50.9,0,46.4,0,39.9c0-6.5,5-11,11.4-11
			c2.8,0,5,0.7,7.1,1.8l-2.1,4c-1.5-0.8-3.1-1.2-4.8-1.2c-4.2,0-6.5,2.6-6.5,6.4c0,4.1,2.7,6.6,6.2,6.6c1.6,0,2.3-0.2,3.1-0.6v-3.1
			h-4.3v-4.2H19.2z"/>
	</g>
	<path id="XMLID_1191_" class="st0" d="M33.2,37.8l-2.1,5.1h4.2L33.2,37.8z M38.4,50.6l-1.6-3.9h-7.3l-1.6,3.9h-5l10-21.4h0.7
		l10,21.4H38.4z"/>
	<path id="XMLID_1188_" class="st0" d="M33.2,37.8l-2.1,5.1h4.2L33.2,37.8z M38.4,50.6l-1.6-3.9h-7.3l-1.6,3.9h-5l10-21.4h0.7
		l10,21.4H38.4z"/>
	<g id="XMLID_1185_">
		<path id="XMLID_1187_" class="st0" d="M54,50.9c-2.4,0-5.3-1-7.2-2.2l1.4-4.5c1.7,1.2,3.9,2.1,5.9,2.1c1.7,0,2.4-0.8,2.4-1.9
			c0-1.1-0.6-1.9-3.8-3.2c-3.7-1.5-5-3.7-5-6.2c0-3.1,2.5-6.1,7.5-6.1c2.3,0,4.7,0.8,5.9,1.7L59.8,35c-1.2-0.8-3.2-1.7-4.7-1.7
			c-1.8,0-2.5,0.8-2.5,1.7c0,1.4,1.1,1.9,3.7,3c4,1.7,5.2,3.6,5.2,6.3C61.5,47.7,59.1,50.9,54,50.9"/>
		<path id="XMLID_1186_" class="st0" d="M54,50.9c-2.4,0-5.3-1-7.2-2.2l1.4-4.5c1.7,1.2,3.9,2.1,5.9,2.1c1.7,0,2.4-0.8,2.4-1.9
			c0-1.1-0.6-1.9-3.8-3.2c-3.7-1.5-5-3.7-5-6.2c0-3.1,2.5-6.1,7.5-6.1c2.3,0,4.7,0.8,5.9,1.7L59.8,35c-1.2-0.8-3.2-1.7-4.7-1.7
			c-1.8,0-2.5,0.8-2.5,1.7c0,1.4,1.1,1.9,3.7,3c4,1.7,5.2,3.6,5.2,6.3C61.5,47.7,59.1,50.9,54,50.9z"/>
	</g>
	<polygon id="XMLID_1184_" class="st0" points="76.8,33.8 76.8,50.6 71.9,50.6 71.9,33.8 65.5,33.8 65.5,29.3 83.2,29.3 83.2,33.8 	
		"/>
	<polygon id="XMLID_1183_" class="st0" points="76.8,33.8 76.8,50.6 71.9,50.6 71.9,33.8 65.5,33.8 65.5,29.3 83.2,29.3 83.2,33.8 	
		"/>
	<g id="XMLID_1162_">
		<path id="XMLID_1180_" class="st0" d="M94.9,33.6c-0.8,0-1.2,0-1.9,0.1v5.9c0.6,0.1,1,0.1,1.6,0.1c2.3,0,3.9-1.1,3.9-3.3
			C98.4,34.6,97,33.6,94.9,33.6 M99.2,50.6l-3.6-6.9c-0.3,0-0.6,0-0.8,0c-0.7,0-1.1,0-1.8-0.1v7H88v-21c1.8-0.2,3.8-0.3,6.3-0.3
			c6.6,0,9.2,3.2,9.2,7c0,2.5-1.4,4.8-3.7,6.1l5,8.2H99.2z"/>
		<path id="XMLID_1177_" class="st0" d="M94.9,33.6c-0.8,0-1.2,0-1.9,0.1v5.9c0.6,0.1,1,0.1,1.6,0.1c2.3,0,3.9-1.1,3.9-3.3
			C98.4,34.6,97,33.6,94.9,33.6z M99.2,50.6l-3.6-6.9c-0.3,0-0.6,0-0.8,0c-0.7,0-1.1,0-1.8-0.1v7H88v-21c1.8-0.2,3.8-0.3,6.3-0.3
			c6.6,0,9.2,3.2,9.2,7c0,2.5-1.4,4.8-3.7,6.1l5,8.2H99.2z"/>
		<path id="XMLID_1166_" class="st0" d="M119.2,33.4c-3.4,0-5.6,2.8-5.6,6.6c0,3.8,2.3,6.6,5.6,6.6c3.4,0,5.6-2.8,5.6-6.6
			C124.8,36.1,122.6,33.4,119.2,33.4 M119.1,50.9c-6.6,0-10.8-4.7-10.8-11c0-6.3,4.4-11,11-11c6.6,0,10.8,4.7,10.8,11
			C130.1,46.2,125.7,50.9,119.1,50.9"/>
		<path id="XMLID_1163_" class="st0" d="M119.2,33.4c-3.4,0-5.6,2.8-5.6,6.6c0,3.8,2.3,6.6,5.6,6.6c3.4,0,5.6-2.8,5.6-6.6
			C124.8,36.1,122.6,33.4,119.2,33.4z M119.1,50.9c-6.6,0-10.8-4.7-10.8-11c0-6.3,4.4-11,11-11c6.6,0,10.8,4.7,10.8,11
			C130.1,46.2,125.7,50.9,119.1,50.9z"/>
	</g>
	<polygon id="XMLID_1161_" class="st0" points="153.7,51 140.9,39.5 140.9,50.6 136,50.6 136,29 136.7,28.9 149.3,40.3 149.3,29.3 
		154.2,29.3 154.2,50.9 	"/>
	<polygon id="XMLID_1160_" class="st0" points="153.7,51 140.9,39.5 140.9,50.6 136,50.6 136,29 136.7,28.9 149.3,40.3 149.3,29.3 
		154.2,29.3 154.2,50.9 	"/>
	<g id="XMLID_1153_">
		<path id="XMLID_1157_" class="st0" d="M171,33.4c-3.4,0-5.6,2.8-5.6,6.6c0,3.8,2.3,6.6,5.6,6.6c3.4,0,5.6-2.8,5.6-6.6
			C176.6,36.1,174.4,33.4,171,33.4 M170.9,50.9c-6.6,0-10.8-4.7-10.8-11c0-6.3,4.4-11,11-11c6.6,0,10.8,4.7,10.8,11
			C181.9,46.2,177.5,50.9,170.9,50.9"/>
		<path id="XMLID_1154_" class="st0" d="M171,33.4c-3.4,0-5.6,2.8-5.6,6.6c0,3.8,2.3,6.6,5.6,6.6c3.4,0,5.6-2.8,5.6-6.6
			C176.6,36.1,174.4,33.4,171,33.4z M170.9,50.9c-6.6,0-10.8-4.7-10.8-11c0-6.3,4.4-11,11-11c6.6,0,10.8,4.7,10.8,11
			C181.9,46.2,177.5,50.9,170.9,50.9z"/>
	</g>
	<polygon id="XMLID_1152_" class="st0" points="205.1,50.6 204.8,40.1 199,47.6 198.4,47.6 192.5,40.1 192.3,50.6 187.5,50.6 
		188.5,29.2 189.2,29.1 198.8,41.3 208.2,29.1 208.9,29.2 209.9,50.6 	"/>
	<polygon id="XMLID_1151_" class="st0" points="205.1,50.6 204.8,40.1 199,47.6 198.4,47.6 192.5,40.1 192.3,50.6 187.5,50.6 
		188.5,29.2 189.2,29.1 198.8,41.3 208.2,29.1 208.9,29.2 209.9,50.6 	"/>
	<rect id="XMLID_1150_" x="216.4" y="29.3" class="st0" width="4.9" height="21.2"/>
	<rect id="XMLID_1149_" x="216.4" y="29.3" class="st0" width="4.9" height="21.2"/>
	<polygon id="XMLID_1148_" class="st0" points="228.1,50.6 228.1,29.3 241.5,29.3 241.5,33.8 233,33.8 233,37.6 240.8,37.6 
		240.8,41.9 233,41.9 233,46.1 241.5,46.1 241.5,50.6 	"/>
	<polygon id="XMLID_1147_" class="st0" points="228.1,50.6 228.1,29.3 241.5,29.3 241.5,33.8 233,33.8 233,37.6 240.8,37.6 
		240.8,41.9 233,41.9 233,46.1 241.5,46.1 241.5,50.6 	"/>
	<polygon id="XMLID_1146_" class="st0" points="263.6,46.1 273.8,46.1 273.8,50.6 255.8,50.6 255.6,50 266.2,33.8 256.4,33.8 
		256.4,29.3 274,29.3 274.2,29.9 	"/>
	<polygon id="XMLID_1145_" class="st0" points="263.6,46.1 273.8,46.1 273.8,50.6 255.8,50.6 255.6,50 266.2,33.8 256.4,33.8 
		256.4,29.3 274,29.3 274.2,29.9 	"/>
	<polygon id="XMLID_1144_" class="st0" points="279,50.6 279,29.3 292.4,29.3 292.4,33.8 283.9,33.8 283.9,37.6 291.7,37.6 
		291.7,41.9 283.9,41.9 283.9,46.1 292.4,46.1 292.4,50.6 	"/>
	<polygon id="XMLID_1143_" class="st0" points="279,50.6 279,29.3 292.4,29.3 292.4,33.8 283.9,33.8 283.9,37.6 291.7,37.6 
		291.7,41.9 283.9,41.9 283.9,46.1 292.4,46.1 292.4,50.6 	"/>
	<rect id="XMLID_1142_" x="298.9" y="29.3" class="st0" width="4.9" height="21.2"/>
	<rect id="XMLID_1141_" x="298.9" y="29.3" class="st0" width="4.9" height="21.2"/>
	<polygon id="XMLID_1140_" class="st0" points="320.2,33.8 320.2,50.6 315.3,50.6 315.3,33.8 308.9,33.8 308.9,29.3 326.6,29.3 
		326.6,33.8 	"/>
	<polygon id="XMLID_1139_" class="st0" points="320.2,33.8 320.2,50.6 315.3,50.6 315.3,33.8 308.9,33.8 308.9,29.3 326.6,29.3 
		326.6,33.8 	"/>
	<g id="XMLID_1136_">
		<path id="XMLID_1138_" class="st0" d="M340.2,50.9c-5.7,0-8.9-3.1-8.9-9V29.3h4.9v12.3c0,3,1.3,4.8,4.1,4.8c2.8,0,4.1-1.8,4.1-4.8
			V29.3h4.9v12.6C349.3,47.8,346,50.9,340.2,50.9"/>
		<path id="XMLID_1137_" class="st0" d="M340.2,50.9c-5.7,0-8.9-3.1-8.9-9V29.3h4.9v12.3c0,3,1.3,4.8,4.1,4.8c2.8,0,4.1-1.8,4.1-4.8
			V29.3h4.9v12.6C349.3,47.8,346,50.9,340.2,50.9z"/>
	</g>
	<polygon id="XMLID_1135_" class="st0" points="373.4,51 360.6,39.5 360.6,50.6 355.6,50.6 355.6,29 356.3,28.9 368.9,40.3 
		368.9,29.3 373.9,29.3 373.9,50.9 	"/>
	<polygon id="XMLID_1134_" class="st0" points="373.4,51 360.6,39.5 360.6,50.6 355.6,50.6 355.6,29 356.3,28.9 368.9,40.3 
		368.9,29.3 373.9,29.3 373.9,50.9 	"/>
	<g id="XMLID_1129_">
		<path id="XMLID_1131_" class="st0" d="M399,38.6v10.1c-2.3,1.4-4.8,2.1-8.1,2.1c-6.2,0-11.2-4.5-11.2-11c0-6.5,5-11,11.4-11
			c2.8,0,5,0.7,7.1,1.8l-2.1,4c-1.5-0.8-3.1-1.2-4.8-1.2c-4.2,0-6.5,2.6-6.5,6.4c0,4.1,2.7,6.6,6.2,6.6c1.6,0,2.3-0.2,3.1-0.6v-3.1
			h-4.3v-4.2H399z"/>
		<path id="XMLID_1130_" class="st0" d="M399,38.6v10.1c-2.3,1.4-4.8,2.1-8.1,2.1c-6.2,0-11.2-4.5-11.2-11c0-6.5,5-11,11.4-11
			c2.8,0,5,0.7,7.1,1.8l-2.1,4c-1.5-0.8-3.1-1.2-4.8-1.2c-4.2,0-6.5,2.6-6.5,6.4c0,4.1,2.7,6.6,6.2,6.6c1.6,0,2.3-0.2,3.1-0.6v-3.1
			h-4.3v-4.2H399z"/>
	</g>
</g>
</svg>
