<svg id="Ebene_1" data-name="Ebene 1" xmlns="http://www.w3.org/2000/svg" viewBox="0 0 177.17 70.87"><defs><style>.cls-1{fill:#cf121c;}.cls-2{fill:none;stroke:#cf121c;stroke-miterlimit:10;stroke-width:0.79px;}</style></defs><title>Zeichenfläche 1</title><path class="cls-1" d="M38.76,15.89h0a6.18,6.18,0,0,0,4.38-1.55,4.2,4.2,0,0,0,1.33-3.11c0-2.43-1.62-4.12-4.33-4.51l-.85-.14c-.5-.08-1-.17-1.52-.23S35.93,6,35.93,4.66a1.88,1.88,0,0,1,.46-1.32,2.8,2.8,0,0,1,2.26-.91,2.88,2.88,0,0,1,2.26.91,2.55,2.55,0,0,1,.61,1.57v.35h2.64V4.87a4.77,4.77,0,0,0-1.49-3.41,6.12,6.12,0,0,0-8,.08A4.36,4.36,0,0,0,33.3,4.7c0,2.29,1.52,3.84,4.17,4.24l2.25.35c1.38.21,2.1.9,2.1,2a1.81,1.81,0,0,1-.63,1.44,3.37,3.37,0,0,1-2.43.74,3.56,3.56,0,0,1-2.49-.78,3,3,0,0,1-.9-2v-.37H32.72v.37a5.19,5.19,0,0,0,1.64,3.78,6.28,6.28,0,0,0,4.39,1.48"/><polygon class="cls-1" points="52.03 8.48 54.18 15.63 57.01 15.63 58.07 0.27 55.6 0.27 54.98 10.45 53.18 4.46 50.92 4.46 49.13 10.48 48.49 0.27 46.02 0.27 47.08 15.62 49.92 15.63 52.03 8.48"/><polygon class="cls-1" points="69.86 13.37 66.62 13.37 66.62 2.51 69.86 2.51 69.86 0.27 60.79 0.27 60.79 2.51 64.03 2.51 64.03 13.37 60.79 13.37 60.79 15.63 69.86 15.63 69.86 13.37"/><polygon class="cls-1" points="77.33 15.63 79.94 15.63 79.94 2.71 84.89 2.71 84.89 0.27 72.36 0.27 72.36 2.71 77.33 2.71 77.33 15.63"/><polygon class="cls-1" points="97.54 13.18 89.77 13.18 97.48 2.61 97.48 0.27 86.74 0.27 86.74 2.71 94.31 2.72 86.61 13.3 86.61 15.63 97.54 15.63 97.54 13.18"/><polygon class="cls-1" points="110.94 13.2 103.11 13.2 103.11 8.88 109.03 8.88 109.03 6.42 103.11 6.42 103.11 2.7 110.94 2.7 110.94 0.27 100.54 0.27 100.54 15.63 110.94 15.63 110.94 13.2"/><path class="cls-1" d="M121.62,4.91c0,1.47-.85,2.19-2.6,2.19H116.2V2.7H119c1.75,0,2.6.72,2.6,2.21M123,8a4.31,4.31,0,0,0,1.21-3.14A4.48,4.48,0,0,0,123,1.68a5.32,5.32,0,0,0-4-1.41h-5.38V15.63h2.57V9.54h2.74l2.76,6.08h2.81L121.5,9A4.34,4.34,0,0,0,123,8"/><polygon class="cls-1" points="129.63 0.27 127.07 0.27 127.07 15.63 137.18 15.63 137.18 13.18 129.63 13.18 129.63 0.27"/><path class="cls-1" d="M146.58,9.39H143l1.77-5.66ZM143.41.27l-5,15.36H141l1.2-3.77h5.14l1.22,3.77h2.67L146.17.27Z"/><polygon class="cls-1" points="160.9 10.89 155.66 0.27 152.78 0.27 152.78 15.63 155.31 15.63 155.31 5.07 160.57 15.63 163.41 15.63 163.41 0.27 160.91 0.27 160.9 10.89"/><path class="cls-1" d="M174.56,7.92c0,1.84-.07,3.43-.93,4.37a3.26,3.26,0,0,1-2.5.91H169V2.7h2.15a3.3,3.3,0,0,1,2.44.86c.91.93,1,2.6,1,4.36m1.57-5.2a5.56,5.56,0,0,0-5-2.44h-4.72V15.63h4.72c2.9,0,4.31-1.29,5-2.38a10.45,10.45,0,0,0,1.07-5.33,9.84,9.84,0,0,0-1-5.2"/><path class="cls-1" d="M38.66,34.6a5.07,5.07,0,0,0,2.63-.75,4.65,4.65,0,0,0,.88-.68l.21,1.15h2V25.7h-6.2v2.44H41.9a4.35,4.35,0,0,1-1.06,3.13,2.81,2.81,0,0,1-2.17.86,2.63,2.63,0,0,1-2.21-.88c-1.17-1.19-1.17-3.5-1.17-4.61,0-2.21.41-3.72,1.26-4.59a2.79,2.79,0,0,1,2.19-.9,2.71,2.71,0,0,1,2.07.78,2.42,2.42,0,0,1,.74,1.64v.35H44.2v-.39a4.74,4.74,0,0,0-1.27-3,5.36,5.36,0,0,0-4.19-1.79,5.44,5.44,0,0,0-4,1.61c-1.39,1.37-2.09,3.5-2.09,6.35,0,3.1.63,5.09,2,6.45a5.41,5.41,0,0,0,4,1.51"/><polygon class="cls-1" points="50.58 18.96 48.01 18.96 48.01 34.32 58.12 34.32 58.12 31.87 50.58 31.87 50.58 18.96"/><path class="cls-1" d="M68.65,26.5v.29c0,1.44,0,3.23-1.05,4.32a3.08,3.08,0,0,1-4.35.2l-.2-.2c-1-1.11-1-2.87-1-4.31v-.3c0-1.44,0-3.23,1-4.32A3.08,3.08,0,0,1,67.4,22l.2.2c1.06,1.09,1.05,2.88,1.05,4.32m-3.33-7.81a5.72,5.72,0,0,0-4.07,1.69c-1.74,1.69-1.89,4-1.89,6.26s.15,4.57,1.88,6.26a5.74,5.74,0,0,0,8.12,0l0,0c1.74-1.69,1.89-4,1.89-6.27s-.15-4.57-1.88-6.26a5.72,5.72,0,0,0-4.07-1.69"/><path class="cls-1" d="M81.79,29.74c0,1.43-.84,2.15-2.5,2.15H76.54V27.53h2.73a2.25,2.25,0,0,1,2.52,2.21m-5.25-4.55V21.32h2.65a2,2,0,0,1,2.27,1.92c0,1.41-.75,1.94-2.23,1.94Zm2.75,9.13a5.35,5.35,0,0,0,3.93-1.41,4.35,4.35,0,0,0,1.17-3,4.08,4.08,0,0,0-2-3.54A3.81,3.81,0,0,0,84,23.15a4,4,0,0,0-1-2.75A5.06,5.06,0,0,0,79.29,19H74V34.32h5.29Z"/><path class="cls-1" d="M93.72,28.08h-3.6l1.77-5.66ZM90.55,19l-5,15.36H88.2l1.2-3.78h5.14l1.22,3.77h2.67L93.31,19Z"/><polygon class="cls-1" points="103.79 18.96 101.22 18.96 101.22 34.32 111.34 34.32 111.34 31.88 103.79 31.87 103.79 18.96"/><polygon class="cls-1" points="7.93 53.01 18.34 53.01 18.34 50.58 10.5 50.58 10.5 46.26 16.42 46.26 16.42 43.8 10.5 43.8 10.5 40.08 18.34 40.08 18.34 37.65 7.93 37.65 7.93 53.01"/><polygon class="cls-1" points="28.74 48.27 23.5 37.65 20.62 37.65 20.62 53.01 23.14 53.01 23.14 42.44 28.41 53.01 31.25 53.01 31.25 37.65 28.74 37.65 28.74 48.27"/><polygon class="cls-1" points="32.97 40.1 37.94 40.1 37.94 53.01 40.55 53.01 40.55 40.1 45.5 40.1 45.5 37.65 32.97 37.65 32.97 40.1"/><polygon class="cls-1" points="47.84 53.01 58.25 53.01 58.25 50.59 50.41 50.58 50.41 46.26 56.33 46.26 56.33 43.8 50.41 43.8 50.41 40.08 58.25 40.08 58.25 37.65 47.84 37.65 47.84 53.01"/><path class="cls-1" d="M68.92,42.29c0,1.47-.85,2.19-2.6,2.19H63.51v-4.4h2.81c1.73,0,2.6.74,2.6,2.21m1.42,3.14a4.31,4.31,0,0,0,1.21-3.14,4.48,4.48,0,0,0-1.26-3.23,5.32,5.32,0,0,0-4-1.41H60.94V53h2.57V46.92h2.74L69,53h2.81l-3-6.59a4.32,4.32,0,0,0,1.52-1"/><path class="cls-1" d="M82.74,42.43c0,1.66-.94,2.5-2.79,2.5h-3V40.06h3c.84,0,2.81.23,2.81,2.38M80,37.65H74.34V53h2.57V47.34H80A5.79,5.79,0,0,0,84,46a4.77,4.77,0,0,0,1.35-3.52,4.69,4.69,0,0,0-1.23-3.28A5.66,5.66,0,0,0,80,37.65"/><path class="cls-1" d="M95.53,42.29c0,1.47-.85,2.19-2.6,2.19H90.11v-4.4h2.81c1.75,0,2.6.72,2.6,2.21m1.42,3.14a4.3,4.3,0,0,0,1.21-3.14,4.48,4.48,0,0,0-1.26-3.23,5.33,5.33,0,0,0-4-1.41H87.55V53h2.57V46.93h2.74L95.62,53h2.81l-3-6.59a4.33,4.33,0,0,0,1.52-1"/><polygon class="cls-1" points="101.22 39.89 104.46 39.89 104.46 50.75 101.22 50.75 101.22 53.01 110.29 53.01 110.29 50.75 107.05 50.75 107.05 39.89 110.29 39.89 110.29 37.66 101.22 37.66 101.22 39.89"/><path class="cls-1" d="M120.47,44.12l-.85-.14c-.5-.08-1-.17-1.53-.23s-1.83-.38-1.83-1.7a1.88,1.88,0,0,1,.47-1.33,2.81,2.81,0,0,1,2.26-.91,2.88,2.88,0,0,1,2.26.91,2.55,2.55,0,0,1,.61,1.57v.35h2.64v-.38a4.76,4.76,0,0,0-1.5-3.41,6.12,6.12,0,0,0-8,.08,4.36,4.36,0,0,0-1.35,3.15c0,2.3,1.52,3.84,4.17,4.24l2.25.35c1.38.21,2.1.9,2.1,2a1.8,1.8,0,0,1-.63,1.44,3.37,3.37,0,0,1-2.43.75,3.57,3.57,0,0,1-2.49-.78,3,3,0,0,1-.9-2v-.37h-2.65V48a5.19,5.19,0,0,0,1.64,3.78,6.28,6.28,0,0,0,4.4,1.48,6.19,6.19,0,0,0,4.38-1.55,4.2,4.2,0,0,0,1.33-3.11c0-2.43-1.62-4.12-4.33-4.51"/><polygon class="cls-1" points="138.07 40.08 138.07 37.66 127.66 37.66 127.66 53.01 138.07 53.01 138.07 50.59 130.23 50.59 130.23 46.27 136.15 46.27 136.15 43.8 130.23 43.8 130.23 40.08 138.07 40.08"/><path class="cls-1" d="M63.7,65.3a1.12,1.12,0,0,0-.84-.36,1.32,1.32,0,0,0-1.26,1.31h2.48a1.41,1.41,0,0,0-.37-.95m-2.13,1.56A1.52,1.52,0,0,0,62,68a1.2,1.2,0,0,0,.84.33,1.13,1.13,0,0,0,.81-.26,1.1,1.1,0,0,0,.37-.53h.71A1.84,1.84,0,0,1,62.84,69a2,2,0,0,1-1.39-.58,2.36,2.36,0,0,1-.65-1.72,2.51,2.51,0,0,1,.65-1.77,1.93,1.93,0,0,1,1.4-.57,1.88,1.88,0,0,1,1.36.53,2.5,2.5,0,0,1,.64,1.76v.26Z"/><path class="cls-1" d="M68.92,68.82V66c0-.64-.29-1.05-1-1.05a1.15,1.15,0,0,0-1,.7,3,3,0,0,0-.19,1.13v2H66v-4.4h.65l.06.67a1.58,1.58,0,0,1,1.38-.78,1.45,1.45,0,0,1,1.57,1.62v2.9Z"/><path class="cls-1" d="M73.72,66.7l-1.22.07a.89.89,0,0,0-1,.81c0,.39.25.73.88.73a1.29,1.29,0,0,0,.92-.36,1.42,1.42,0,0,0,.39-1Zm.7,2.18a.64.64,0,0,1-.65-.63s0,0,0,0h0a1.68,1.68,0,0,1-1.45.72,1.35,1.35,0,0,1-1.51-1.17s0-.09,0-.13a1.47,1.47,0,0,1,1.51-1.43h.07l1.38-.08V65.8a.79.79,0,0,0-.23-.63,1,1,0,0,0-.74-.25,1.09,1.09,0,0,0-.8.27.75.75,0,0,0-.24.51H71a1.29,1.29,0,0,1,.41-.9,2,2,0,0,1,1.36-.49,1.5,1.5,0,0,1,1.7,1.52V68c0,.23.11.3.26.3h.19v.55a1,1,0,0,1-.49.1"/><path class="cls-1" d="M78.67,65.28a1.1,1.1,0,0,0-.81-.34,1.08,1.08,0,0,0-.74.29,2.17,2.17,0,0,0,0,2.77,1.08,1.08,0,0,0,.74.29,1.12,1.12,0,0,0,.83-.31,1.91,1.91,0,0,0,.45-1.36,1.85,1.85,0,0,0-.47-1.33m.58,3.14a1.75,1.75,0,0,1-1.27.51,1.61,1.61,0,0,1-1.35-.69l-.05.57h-.65V62.53h.74v2.39A1.61,1.61,0,0,1,78,64.3a1.78,1.78,0,0,1,1.24.48,2.52,2.52,0,0,1,.67,1.85,2.55,2.55,0,0,1-.64,1.8"/><polygon class="cls-1" points="80.48 68.82 80.48 68.19 82.03 68.19 82.03 63.15 80.61 63.15 80.61 62.53 82.78 62.53 82.78 68.19 84.32 68.19 84.32 68.82 80.48 68.82"/><path class="cls-1" d="M86.51,62.53h1.05v1H86.51Zm-1.4,6.28v-.63H86.7V65H85.29v-.63h2.17v3.77h1.6v.63Z"/><path class="cls-1" d="M92.93,68.82V66c0-.64-.29-1.05-1-1.05a1.15,1.15,0,0,0-1,.7,3,3,0,0,0-.19,1.13v2H90v-4.4h.65l.06.67a1.58,1.58,0,0,1,1.37-.78,1.45,1.45,0,0,1,1.57,1.62v2.9Z"/><path class="cls-1" d="M96.76,64.9a1,1,0,0,0-1,1,1,1,0,0,0,2.05,0,1,1,0,0,0-1-1m.12,3.87H96a.76.76,0,0,0-.56.69.62.62,0,0,0,.18.46,1.8,1.8,0,0,0,1.22.3,1.83,1.83,0,0,0,1.21-.31.63.63,0,0,0,.2-.45c0-.75-.85-.69-1.41-.69m1.76,1.57a2.66,2.66,0,0,1-1.8.52,2.39,2.39,0,0,1-1.7-.5,1.06,1.06,0,0,1-.33-.78,1.1,1.1,0,0,1,.63-1,.79.79,0,0,1-.51-.74,1,1,0,0,1,.6-.85,1.54,1.54,0,0,1-.12-2.17l0,0a1.76,1.76,0,0,1,1.32-.5,1.93,1.93,0,0,1,1,.26.94.94,0,0,1,.91-.62h.22v.6h-.17a.55.55,0,0,0-.55.4,1.41,1.41,0,0,1,.3.92,1.53,1.53,0,0,1-.4,1,1.79,1.79,0,0,1-1.34.53A2.09,2.09,0,0,1,96,67.3a.52.52,0,0,0-.38.41c0,.38.38.43.65.43h1a2,2,0,0,1,1.44.46,1.18,1.18,0,0,1,.34.86,1.21,1.21,0,0,1-.37.88"/><path class="cls-1" d="M105.37,68.82V66c0-.64-.29-1.05-1-1.05a1.16,1.16,0,0,0-1,.7,3,3,0,0,0-.19,1.13v2h-.75v-4.4h.65l.06.67a1.58,1.58,0,0,1,1.37-.78,1.45,1.45,0,0,1,1.57,1.62v2.9Z"/><path class="cls-1" d="M110.07,65.3a1.12,1.12,0,0,0-.84-.36,1.32,1.32,0,0,0-1.23,1.3h2.48a1.42,1.42,0,0,0-.37-.95M108,66.85a1.52,1.52,0,0,0,.44,1.11,1.2,1.2,0,0,0,.84.33A1.13,1.13,0,0,0,110,68a1.11,1.11,0,0,0,.37-.53h.71a1.84,1.84,0,0,1-1.89,1.44,2,2,0,0,1-1.39-.58,2.36,2.36,0,0,1-.65-1.72,2.51,2.51,0,0,1,.65-1.77,1.93,1.93,0,0,1,1.4-.57,1.88,1.88,0,0,1,1.36.53,2.5,2.5,0,0,1,.64,1.76v.26Z"/><polygon class="cls-1" points="115.89 68.82 115 68.82 114.16 66.34 113.32 68.82 112.44 68.82 111.84 64.42 112.54 64.42 113 67.93 113.81 65.56 114.51 65.56 115.34 67.92 115.8 64.42 116.49 64.42 115.89 68.82"/><path class="cls-1" d="M122.61,65.28a1.11,1.11,0,0,0-1.55,0,2.18,2.18,0,0,0,0,2.77,1.09,1.09,0,0,0,.74.29,1.12,1.12,0,0,0,.83-.31,1.9,1.9,0,0,0,.45-1.36,1.85,1.85,0,0,0-.47-1.33m.58,3.14a1.76,1.76,0,0,1-1.27.51,1.61,1.61,0,0,1-1.35-.69l-.05.57h-.65V62.53h.74v2.39a1.61,1.61,0,0,1,1.31-.63,1.78,1.78,0,0,1,1.24.48,2.52,2.52,0,0,1,.67,1.85,2.55,2.55,0,0,1-.64,1.8"/><path class="cls-1" d="M127.73,68.82l-.06-.66a1.52,1.52,0,0,1-1.35.78,1.49,1.49,0,0,1-1.55-1.62v-2.9h.75v2.8c0,.66.28,1.05,1,1.05A1.21,1.21,0,0,0,127.64,67V64.41h.75v4.4Z"/><path class="cls-1" d="M133.11,68.42a2.11,2.11,0,0,1-1.51.51,2,2,0,0,1-1.5-.51,1.45,1.45,0,0,1-.44-1h.74a.87.87,0,0,0,.38.68,1.42,1.42,0,0,0,.85.22,1.35,1.35,0,0,0,.86-.25.57.57,0,0,0,.22-.45c0-.29-.18-.54-.65-.61l-1.12-.17a1.37,1.37,0,0,1-.81-.41,1.15,1.15,0,0,1-.26-.76,1.19,1.19,0,0,1,.36-.85,1.91,1.91,0,0,1,1.34-.51,1.81,1.81,0,0,1,1.45.59,1.4,1.4,0,0,1,.3.84h-.74a.78.78,0,0,0-.26-.54,1.14,1.14,0,0,0-.76-.26,1.22,1.22,0,0,0-.75.22.6.6,0,0,0-.24.46c0,.33.22.49.58.55l1.19.18a1.23,1.23,0,0,1,.76,2.08"/><path class="cls-1" d="M135.8,62.53h1.05v1H135.8Zm-1.4,6.28v-.63H136V65h-1.42v-.63h2.17v3.77h1.6v.63Z"/><path class="cls-1" d="M142.22,68.82V66c0-.64-.29-1.05-1-1.05a1.15,1.15,0,0,0-1,.7,3,3,0,0,0-.19,1.13v2h-.75v-4.4H140l.06.67a1.58,1.58,0,0,1,1.37-.78A1.45,1.45,0,0,1,143,65.92v2.9Z"/><path class="cls-1" d="M146.92,65.3a1.12,1.12,0,0,0-.84-.36,1.32,1.32,0,0,0-1.26,1.31h2.48a1.4,1.4,0,0,0-.37-.95m-2.13,1.56a1.53,1.53,0,0,0,.44,1.11,1.21,1.21,0,0,0,.84.33,1.13,1.13,0,0,0,.81-.26,1.1,1.1,0,0,0,.36-.53H148a1.84,1.84,0,0,1-1.89,1.44,2,2,0,0,1-1.39-.58,2.37,2.37,0,0,1-.65-1.72,2.52,2.52,0,0,1,.65-1.77,1.93,1.93,0,0,1,1.4-.57,1.89,1.89,0,0,1,1.36.53,2.51,2.51,0,0,1,.63,1.76v.26Z"/><path class="cls-1" d="M152.56,68.42a2.1,2.1,0,0,1-1.5.51,2,2,0,0,1-1.51-.51,1.45,1.45,0,0,1-.43-1h.74a.87.87,0,0,0,.38.68,1.41,1.41,0,0,0,.85.22,1.34,1.34,0,0,0,.86-.25.57.57,0,0,0,.22-.45c0-.29-.18-.54-.65-.61l-1.12-.17a1.36,1.36,0,0,1-.81-.41,1.15,1.15,0,0,1-.26-.76,1.2,1.2,0,0,1,.36-.85A1.91,1.91,0,0,1,151,64.3a1.81,1.81,0,0,1,1.45.59,1.4,1.4,0,0,1,.3.84H152a.78.78,0,0,0-.26-.54,1.13,1.13,0,0,0-.76-.26,1.22,1.22,0,0,0-.75.22.59.59,0,0,0-.24.46c0,.33.22.49.58.55l1.19.18a1.23,1.23,0,0,1,.76,2.08"/><path class="cls-1" d="M157.52,68.42a2.11,2.11,0,0,1-1.51.51,2,2,0,0,1-1.5-.51,1.45,1.45,0,0,1-.44-1h.74a.87.87,0,0,0,.38.68,1.42,1.42,0,0,0,.85.22,1.35,1.35,0,0,0,.86-.25.57.57,0,0,0,.22-.45c0-.29-.18-.54-.65-.61l-1.12-.17a1.37,1.37,0,0,1-.81-.41,1.14,1.14,0,0,1-.26-.76,1.19,1.19,0,0,1,.36-.85A1.91,1.91,0,0,1,156,64.3a1.81,1.81,0,0,1,1.45.59,1.4,1.4,0,0,1,.3.84H157a.78.78,0,0,0-.26-.54,1.14,1.14,0,0,0-.76-.26,1.23,1.23,0,0,0-.75.22.6.6,0,0,0-.24.46c0,.33.22.49.58.55l1.19.18a1.23,1.23,0,0,1,.76,2.08"/><polygon class="cls-2" points="8.33 8.58 7.32 8.58 3.59 8.58 0.4 8.58 0.4 11.55 0.4 15.24 4.01 15.24 7.32 15.24 8.33 15.24 8.33 19.4 8.33 23.17 11.59 23.17 14.99 23.17 14.99 19.12 14.99 15.24 19.16 15.24 22.92 15.24 22.92 11.98 22.92 8.58 18.3 8.58 14.99 8.58 14.99 0.65 11.3 0.65 8.33 0.65 8.33 8.58"/></svg>